<?xml version="1.0" encoding="utf-8"?>
<!-- Generator: Adobe Illustrator 15.0.0, SVG Export Plug-In . SVG Version: 6.00 Build 0)  -->
<!DOCTYPE svg PUBLIC "-//W3C//DTD SVG 1.1//EN" "http://www.w3.org/Graphics/SVG/1.1/DTD/svg11.dtd">
<svg version="1.1" id="Layer_1" xmlns="http://www.w3.org/2000/svg" xmlns:xlink="http://www.w3.org/1999/xlink" x="0px" y="0px"
	 width="50px" height="50px" viewBox="0 0 50 50" enable-background="new 0 0 50 50" xml:space="preserve">
<path fill="#FFFFFF" d="M40.546,5.307c-5.035-3.974-12.238-6.332-20.515-4.87C-2.429,4.401-8.421,38.242,14.633,48.06
	c13.415,5.713,28.796-1.96,33.468-12.988C53.498,22.339,46.25,9.809,40.546,5.307z M34.616,20.193
	c0.075,6.853-4.609,13.411-11.058,14.423c-3.36,0.526-8.15,0.213-10.096-2.886c2.285,0.203,3.468-0.698,5.289-0.961
	c-4.12-3.634-5.592-9.313-3.846-14.422c2.953,1.374,4.444,4.209,8.654,4.327c0.279-3.758,5.906-7.555,9.134-3.846
	c0.877-0.13,2.695-1.731,3.365-0.481c0.043,0.785-0.802,2.091,0,0.961C37.482,18.304,35.372,19.79,34.616,20.193z"/>
</svg>
