<?xml version="1.0" encoding="utf-8"?>
<!-- Generator: Adobe Illustrator 15.0.0, SVG Export Plug-In . SVG Version: 6.00 Build 0)  -->
<!DOCTYPE svg PUBLIC "-//W3C//DTD SVG 1.1//EN" "http://www.w3.org/Graphics/SVG/1.1/DTD/svg11.dtd">
<svg version="1.1" id="Layer_1" xmlns="http://www.w3.org/2000/svg" xmlns:xlink="http://www.w3.org/1999/xlink" x="0px" y="0px"
	 width="50px" height="50px" viewBox="0 0 50 50" enable-background="new 0 0 50 50" xml:space="preserve">
<g id="Gg5Vuz.tif">
	<g>
		<path fill-rule="evenodd" clip-rule="evenodd" fill="#FFFFFF" d="M23.317,0C9.428,2.056,1.47,10.043,0,24.519
			C0,16.346,0,8.173,0,0C7.772,0,15.545,0,23.317,0z"/>
		<path fill-rule="evenodd" clip-rule="evenodd" d="M23.317,0c1.202,0,2.404,0,3.605,0C40.313,2.075,48.079,9.773,50,23.317
			c0,1.122,0,2.244,0,3.365C47.863,40.571,39.924,48.657,25.24,50c-0.16,0-0.32,0-0.48,0C9.828,48.506,1.621,40.286,0,25.481
			c0-0.321,0-0.641,0-0.962C1.47,10.043,9.428,2.056,23.317,0z M16.586,4.086C8.681,7.244,1.388,15.476,2.644,27.645
			C4.075,41.501,16.49,48.532,27.885,47.355c11.203-1.156,20.813-11.24,19.471-25c-0.361-3.71-2.388-8.232-4.086-10.577
			c-3.9-5.384-10.846-10.024-20.914-8.894C20.221,3.124,18.068,3.495,16.586,4.086z"/>
		<path fill-rule="evenodd" clip-rule="evenodd" fill="#FFFFFF" d="M26.923,0C34.615,0,42.308,0,50,0c0,7.772,0,15.545,0,23.317
			C48.079,9.773,40.313,2.075,26.923,0z"/>
		<path fill-rule="evenodd" clip-rule="evenodd" fill="#FFFFFF" d="M22.356,2.885c10.068-1.13,17.013,3.51,20.914,8.894
			c1.698,2.345,3.725,6.867,4.086,10.577c1.343,13.759-8.268,23.843-19.471,25C16.49,48.532,4.075,41.501,2.644,27.645
			C1.388,15.476,8.681,7.244,16.586,4.086C18.068,3.495,20.221,3.124,22.356,2.885z M21.635,20.914
			c-0.752,0.049-1.765-0.162-2.164,0.24c0.07,1.453-0.192,3.237,0.24,4.327c0.575,0.146,1.744-0.302,1.923,0.24
			c0.152,3.373-0.311,7.362,0.24,10.336c1.183,0.392,3.865,0.392,5.048,0c0-3.525,0-7.051,0-10.577c0.962,0,1.923,0,2.885,0
			c0.417-1.157,0.649-3.608,0.48-4.567c-1.097-0.104-2.646,0.243-3.365-0.241c0.05-0.752-0.162-1.765,0.24-2.163
			c0.649-0.473,2.101-0.143,3.125-0.241c0-1.442,0-2.884,0-4.327C24.34,13.202,20.898,14.969,21.635,20.914z"/>
		<path fill-rule="evenodd" clip-rule="evenodd" d="M30.288,13.942c0,1.442,0,2.885,0,4.327c-1.024,0.098-2.476-0.232-3.125,0.241
			c-0.402,0.398-0.19,1.411-0.24,2.163c0.719,0.483,2.269,0.136,3.365,0.241c0.169,0.959-0.063,3.41-0.48,4.567
			c-0.962,0-1.923,0-2.885,0c0,3.526,0,7.051,0,10.577c-1.183,0.392-3.865,0.392-5.048,0c-0.551-2.975-0.088-6.964-0.24-10.336
			c-0.179-0.542-1.349-0.094-1.923-0.24c-0.433-1.09-0.17-2.875-0.24-4.327c0.399-0.402,1.411-0.191,2.164-0.24
			C20.898,14.969,24.34,13.202,30.288,13.942z"/>
		<path fill-rule="evenodd" clip-rule="evenodd" fill="#FFFFFF" d="M0,25.481C1.621,40.286,9.828,48.506,24.76,50
			C16.506,50,8.253,50,0,50C0,41.827,0,33.654,0,25.481z"/>
		<path fill-rule="evenodd" clip-rule="evenodd" fill="#FFFFFF" d="M50,26.683c0,7.772,0,15.545,0,23.317c-8.253,0-16.507,0-24.76,0
			C39.924,48.657,47.863,40.571,50,26.683z"/>
	</g>
</g>
</svg>
