<?xml version="1.0" encoding="utf-8"?>
<!-- Generator: Adobe Illustrator 15.0.0, SVG Export Plug-In . SVG Version: 6.00 Build 0)  -->
<!DOCTYPE svg PUBLIC "-//W3C//DTD SVG 1.1//EN" "http://www.w3.org/Graphics/SVG/1.1/DTD/svg11.dtd">
<svg version="1.1" id="Layer_1" xmlns="http://www.w3.org/2000/svg" xmlns:xlink="http://www.w3.org/1999/xlink" x="0px" y="0px"
	 width="50px" height="50px" viewBox="0 0 50 50" enable-background="new 0 0 50 50" xml:space="preserve">
<g id="lTxNku.tif">
	<g>
		<path fill-rule="evenodd" clip-rule="evenodd" d="M20.673,0c2.885,0,5.77,0,8.654,0C40.311,2.798,47.201,9.689,50,20.673
			c0,2.725,0,5.449,0,8.173C47.339,40.287,40.215,47.267,28.846,50c-2.563,0-5.128,0-7.692,0C9.759,47.293,2.708,40.241,0,28.846
			c0-2.563,0-5.128,0-7.692C2.657,9.868,9.536,2.806,20.673,0z M15.865,45.673c11.948,5.075,25.646-1.741,29.808-11.538
			c4.805-11.312-1.65-22.443-6.73-26.442c-4.484-3.531-10.899-5.625-18.27-4.327C0.669,6.888-4.668,36.951,15.865,45.673z"/>
		<path fill-rule="evenodd" clip-rule="evenodd" d="M29.327,30.288c-1.972,0.048-3.941,0.095-5.289-0.48
			c-1.293,2.394-1.251,6.12-4.327,6.73c-0.95-3.284,0.266-7.024,0.961-10.096c-0.485-1.326-0.831,2.203-1.923,0.48
			c-1.743-0.51-2.638-1.905-2.885-2.884c-2.2-8.729,10.402-14.52,16.347-8.173C36.125,20.044,34.258,27.104,29.327,30.288z
			 M28.365,17.308c-5.86-2.994-11.515,4.043-7.211,8.173c-0.825-3.355-0.57-7.309,3.365-7.212c3.174,1.5,0.275,5.741,0.481,8.654
			C29.669,29.082,31.361,19.958,28.365,17.308z"/>
	</g>
</g>
</svg>
