<?xml version="1.0" encoding="utf-8"?>
<!-- Generator: Adobe Illustrator 15.0.0, SVG Export Plug-In . SVG Version: 6.00 Build 0)  -->
<!DOCTYPE svg PUBLIC "-//W3C//DTD SVG 1.1//EN" "http://www.w3.org/Graphics/SVG/1.1/DTD/svg11.dtd">
<svg version="1.1" id="Layer_1" xmlns="http://www.w3.org/2000/svg" xmlns:xlink="http://www.w3.org/1999/xlink" x="0px" y="0px"
	 width="50px" height="50px" viewBox="0 0 50 50" enable-background="new 0 0 50 50" xml:space="preserve">
<g id="TpblUK.tif">
	<g>
		<path fill-rule="evenodd" clip-rule="evenodd" d="M22.836,0c1.442,0,2.885,0,4.327,0C40.301,2.167,48.008,9.765,50,23.077
			c0,1.282,0,2.564,0,3.846C47.869,40.497,40.019,48.352,25.961,50c-0.641,0-1.282,0-1.923,0C9.818,48.275,1.87,40.277,0,26.202
			c0-0.801,0-1.603,0-2.404C1.716,9.969,9.521,2.229,22.836,0z M8.894,9.375c-3.14,3.251-5.764,7.299-6.25,13.702
			c-0.965,12.716,8.115,23.246,19.952,24.278c10.843,0.946,19.115-5.177,22.596-12.26c3.343-6.8,2.607-16.299-1.442-22.596
			C40.581,7.572,32.629,1.812,22.596,2.885C16.752,3.509,12.021,6.137,8.894,9.375z"/>
		<path fill-rule="evenodd" clip-rule="evenodd" d="M16.106,17.308c1.907-0.621,16.744-1.002,18.75,0.24
			c2.251,1.394,2.435,13.397,0,14.904c-1.861,1.152-7.012,0.48-9.855,0.48c-2.832,0-8.209,0.539-9.856-0.48
			c-1.273-0.788-1.442-3.011-1.442-6.25C13.702,21.658,13.032,18.309,16.106,17.308z M23.317,27.645
			c1.74-0.905,3.419-1.87,4.808-3.125c-1.618-1.025-3.109-2.179-4.808-3.125C23.317,23.478,23.317,25.561,23.317,27.645z"/>
		<g>
		</g>
	</g>
</g>
</svg>
