<?xml version="1.0" encoding="utf-8"?>
<!-- Generator: Adobe Illustrator 15.0.0, SVG Export Plug-In . SVG Version: 6.00 Build 0)  -->
<!DOCTYPE svg PUBLIC "-//W3C//DTD SVG 1.1//EN" "http://www.w3.org/Graphics/SVG/1.1/DTD/svg11.dtd">
<svg version="1.1" id="Layer_1" xmlns="http://www.w3.org/2000/svg" xmlns:xlink="http://www.w3.org/1999/xlink" x="0px" y="0px"
	 width="50px" height="50px" viewBox="0 0 50 50" enable-background="new 0 0 50 50" xml:space="preserve">
<g id="nHqrSM.tif">
	<g>
		<path fill-rule="evenodd" clip-rule="evenodd" d="M20.673,0c2.885,0,5.77,0,8.654,0C40.311,2.798,47.201,9.689,50,20.673
			c0,2.725,0,5.449,0,8.173C47.339,40.287,40.215,47.267,28.846,50c-2.563,0-5.128,0-7.692,0C9.759,47.293,2.708,40.241,0,28.846
			c0-2.563,0-5.128,0-7.692C2.657,9.868,9.536,2.806,20.673,0z M15.865,45.673c11.948,5.075,25.646-1.741,29.808-11.538
			c4.805-11.312-1.65-22.443-6.73-26.442c-4.484-3.531-10.899-5.625-18.27-4.327C0.669,6.888-4.668,36.951,15.865,45.673z"/>
		<path fill-rule="evenodd" clip-rule="evenodd" d="M36.058,17.308c1.425,0.996-0.686,2.482-1.442,2.885
			c0.075,6.853-4.609,13.411-11.058,14.423c-3.36,0.527-8.15,0.213-10.096-2.885c2.285,0.202,3.468-0.699,5.289-0.961
			c-4.12-3.634-5.592-9.314-3.846-14.423c2.953,1.374,4.444,4.209,8.654,4.327c0.279-3.758,5.906-7.555,9.135-3.846
			c0.877-0.13,2.695-1.731,3.365-0.481C36.102,17.132,35.257,18.438,36.058,17.308z"/>
	</g>
</g>
</svg>
