<?xml version="1.0" encoding="utf-8"?>
<!-- Generator: Adobe Illustrator 15.0.0, SVG Export Plug-In . SVG Version: 6.00 Build 0)  -->
<!DOCTYPE svg PUBLIC "-//W3C//DTD SVG 1.1//EN" "http://www.w3.org/Graphics/SVG/1.1/DTD/svg11.dtd">
<svg version="1.1" id="Layer_1" xmlns="http://www.w3.org/2000/svg" xmlns:xlink="http://www.w3.org/1999/xlink" x="0px" y="0px"
	 width="50px" height="50px" viewBox="0 0 50 50" enable-background="new 0 0 50 50" xml:space="preserve">
<g>
	<path fill-rule="evenodd" clip-rule="evenodd" fill="#404040" d="M40.546,5.307c-5.035-3.974-12.238-6.332-20.514-4.871
		C-2.429,4.401-8.422,38.242,14.634,48.06c13.416,5.713,28.797-1.96,33.469-12.988C53.497,22.338,46.25,9.809,40.546,5.307z
		 M29.327,30.288c-1.972,0.048-3.941,0.095-5.289-0.48c-1.293,2.394-1.251,6.12-4.327,6.73c-0.95-3.284,0.266-7.024,0.961-10.096
		c-0.485-1.326-0.831,2.203-1.923,0.48c-1.743-0.51-2.638-1.905-2.885-2.884c-2.2-8.729,10.402-14.52,16.347-8.173
		C36.125,20.044,34.258,27.104,29.327,30.288z"/>
	<path fill-rule="evenodd" clip-rule="evenodd" fill="#404040" d="M28.365,17.308c-5.86-2.994-11.515,4.043-7.211,8.173
		c-0.825-3.355-0.57-7.309,3.365-7.212c3.174,1.5,0.275,5.741,0.481,8.654C29.669,29.082,31.361,19.958,28.365,17.308z"/>
</g>
</svg>
