<svg xmlns="http://www.w3.org/2000/svg" width="363.044" height="100" viewBox="0 11 363.044 100"><path fill="#2E332B" d="M50 11C22.386 11 0 33.385 0 61c0 27.619 22.386 50 50 50 27.611 0 50.002-22.381 50.002-50 0-27.611-22.391-50-50.002-50zm0 85.105a5.994 5.994 0 1 1 0-11.987 5.994 5.994 0 0 1 0 11.987zm17.342-15.236c-8.538 0-15.65-6.029-17.342-14.055-1.69 8.027-8.809 14.055-17.334 14.051-9.79 0-17.729-7.938-17.729-17.719 0-9.699 7.798-17.568 17.458-17.713-.124-.844-.216-1.701-.214-2.582 0-9.361 7.594-16.951 16.954-16.951s16.95 7.59 16.95 16.951c0 .9-.086 1.779-.223 2.645.492-.041.977-.076 1.48-.076 9.786 0 17.718 7.932 17.718 17.727 0 9.781-7.932 17.718-17.718 17.722z"/><text transform="translate(115.178 78.295)" fill="#2E332B" font-family="'MyriadPro-Regular'" font-size="47.847">Club Garden</text></svg>