<?xml version="1.0" encoding="utf-8"?>
<!-- Generator: Adobe Illustrator 15.0.0, SVG Export Plug-In . SVG Version: 6.00 Build 0)  -->
<!DOCTYPE svg PUBLIC "-//W3C//DTD SVG 1.1//EN" "http://www.w3.org/Graphics/SVG/1.1/DTD/svg11.dtd">
<svg version="1.1" id="Layer_1" xmlns="http://www.w3.org/2000/svg" xmlns:xlink="http://www.w3.org/1999/xlink" x="0px" y="0px"
	 width="363.044px" height="100px" viewBox="0 11 363.044 100" enable-background="new 0 11 363.044 100" xml:space="preserve">
<path fill="#2E332B" d="M50,11C22.386,11,0,33.385,0,61c0,27.619,22.386,50,50,50c27.611,0,50.002-22.381,50.002-50
	C100.002,33.389,77.611,11,50,11z M50,96.105c-3.312,0-5.994-2.686-5.994-5.99c0-3.312,2.682-5.996,5.994-5.996
	c3.308,0,5.996,2.684,5.994,5.996C55.994,93.42,53.306,96.105,50,96.105z M67.342,80.869c-8.538,0-15.65-6.029-17.342-14.055
	c-1.69,8.027-8.809,14.055-17.334,14.051c-9.79,0-17.729-7.938-17.729-17.719c0-9.699,7.798-17.568,17.458-17.713
	c-0.124-0.844-0.216-1.701-0.214-2.582c0-9.361,7.594-16.951,16.954-16.951s16.95,7.59,16.95,16.951c0,0.9-0.086,1.779-0.223,2.645
	c0.492-0.041,0.977-0.076,1.48-0.076c9.786,0,17.718,7.932,17.718,17.727C85.06,72.928,77.128,80.865,67.342,80.869z"/>
<text transform="matrix(1 0 0 1 115.1777 78.2949)" fill="#2E332B" font-family="'MyriadPro-Regular'" font-size="47.8466">Club Garden</text>
</svg>
