<svg width="236" height="156" xmlns="http://www.w3.org/2000/svg" xmlns:xlink="http://www.w3.org/1999/xlink"><svg width="52" height="52" viewBox="24 24 52 52" y="52" xmlns="http://www.w3.org/2000/svg"><path fill="#B1B1B1" d="M50 25c-13.807 0-25 11.193-25 25s11.193 25 25 25 25-11.193 25-25-11.193-25-25-25zm0 45.25A5.125 5.125 0 1 1 50 60a5.125 5.125 0 0 1 0 10.25zm6-18.75c0 3.312-2.688 6-6 6h-.5c-3.313 0-6-2.688-6-6v-16a6.001 6.001 0 0 1 6-6.001h.5c3.312 0 6 2.687 6 6.001v16z"/></svg><svg width="52" height="52" viewBox="24 24 52 52" x="52" y="52" xmlns="http://www.w3.org/2000/svg"><path fill="#B1B1B1" d="M50 25c-13.807 0-25 11.193-25 25s11.193 25 25 25c13.808 0 25-11.193 25-25S63.807 25 50 25zm15.321 40.373l-.13.13a2.93 2.93 0 0 1-4.145 0L49.909 54.364 38.771 65.502a2.93 2.93 0 0 1-4.145 0l-.129-.129a2.93 2.93 0 0 1 0-4.145L45.635 50.09 34.499 38.954a2.93 2.93 0 0 1 0-4.145l.129-.129a2.93 2.93 0 0 1 4.145 0L49.91 45.818 61.047 34.68a2.93 2.93 0 0 1 4.145 0l.129.129a2.93 2.93 0 0 1 0 4.145L54.183 50.091l11.139 11.138a2.93 2.93 0 0 1-.001 4.144z"/></svg><svg width="52" height="52" viewBox="-1 -1 52 52" x="104" y="52" xmlns="http://www.w3.org/2000/svg"><path fill="#B1B1B1" d="M25 0C11.193 0 0 11.193 0 25s11.193 25 25 25 25-11.193 25-25S38.807 0 25 0zm17 36.062A2.936 2.936 0 0 1 39.062 39H10.938A2.936 2.936 0 0 1 8 36.062v-.125A2.936 2.936 0 0 1 10.938 33h28.125A2.936 2.936 0 0 1 42 35.938v.124zm0-11A2.936 2.936 0 0 1 39.062 28H10.938A2.936 2.936 0 0 1 8 25.062v-.125A2.936 2.936 0 0 1 10.938 22h28.125A2.936 2.936 0 0 1 42 24.938v.124zm0-11A2.936 2.936 0 0 1 39.062 17H10.938A2.936 2.936 0 0 1 8 14.062v-.125A2.936 2.936 0 0 1 10.938 11h28.125A2.936 2.936 0 0 1 42 13.938v.124z"/></svg><svg width="52" height="52" viewBox="-1 -1 52 52" y="104" xmlns="http://www.w3.org/2000/svg"><g fill="#646464"><path d="M19.959 25.461h1.714v10.37c0 .228.192.42.42.42h4.484a.424.424 0 0 0 .419-.42v-10.37h2.602a.426.426 0 0 0 .42-.372l.396-3.812a.42.42 0 0 0-.372-.457h-3.045V19c0-.12.012-.24.061-.348a.407.407 0 0 1 .251-.229.718.718 0 0 1 .217-.035h2.409c.229 0 .42-.193.42-.421v-3.692a.423.423 0 0 0-.42-.418l-3.32-.012a5.55 5.55 0 0 0-2.445.502 4.018 4.018 0 0 0-1.235.899 4.587 4.587 0 0 0-1.007 1.774 5.852 5.852 0 0 0-.264 1.762v2.05H19.95a.423.423 0 0 0-.419.419v3.812c.009.207.19.398.428.398z"/><path d="M24.97 50c13.81.013 25.006-11.16 25.03-24.971C50.024 11.221 38.828.023 25.03 0S.012 11.172 0 24.971a24.969 24.969 0 0 0 7.325 17.705A24.883 24.883 0 0 0 24.97 50zm0-47.436c12.419-.012 22.5 10.059 22.514 22.478.012 12.419-10.059 22.501-22.478 22.513-12.419 0-22.501-10.058-22.513-22.477 0-5.971 2.36-11.7 6.593-15.932A22.393 22.393 0 0 1 24.97 2.564z"/></g></svg><svg width="52" height="52" viewBox="-1 -1 52 52" x="52" y="104" xmlns="http://www.w3.org/2000/svg"><g fill="#646464"><path d="M16.027 21.686zm.156 2.168c.084.396.216.779.384 1.14.252.54.635 1.008 1.103 1.367a4.399 4.399 0 0 0 1.774.791.44.44 0 0 0 .456-.204c.144-.239.252-.503.335-.769.072-.216.108-.455.108-.684 0-.264-.06-.539-.156-.779-.144-.3-.299-.6-.479-.875a2.515 2.515 0 0 1-.324-.814 5.209 5.209 0 0 1 .444-3.116 5.997 5.997 0 0 1 2.301-2.493 6.17 6.17 0 0 1 3.237-.947c.635 0 1.271.12 1.87.349a4.867 4.867 0 0 1 1.666 1.113c.396.433.684.947.852 1.512.191.671.288 1.365.288 2.062a8.64 8.64 0 0 1-.265 2.146c-.252 1.043-.694 2.002-1.271 2.673a3.29 3.29 0 0 1-.945.778 2.353 2.353 0 0 1-1.115.274 2.5 2.5 0 0 1-.528-.06 1.924 1.924 0 0 1-.575-.204c-.096-.048-.18-.12-.264-.191a.92.92 0 0 1-.216-.384 2.014 2.014 0 0 1-.072-.539 4.88 4.88 0 0 1 .18-1.175c.168-.66.418-1.379.635-2.1.106-.358.203-.719.274-1.065.072-.336.12-.685.12-1.031 0-.203-.023-.407-.061-.599a1.933 1.933 0 0 0-.396-.815 2.033 2.033 0 0 0-.815-.562c-.3-.12-.635-.192-.959-.192-.443 0-.887.133-1.259.384-.54.36-.947.923-1.211 1.56a5.34 5.34 0 0 0-.407 2.074 4.213 4.213 0 0 0 .443 1.953c-.3 1.45-.743 2.89-1.115 4.399-.384 1.558-.695 3.212-.695 5.034 0 .73.048 1.475.156 2.206.036.228.24.384.479.358a.57.57 0 0 0 .192-.072 6.352 6.352 0 0 0 1.427-1.476c.587-.851 1.007-1.834 1.331-2.889.264-.888.479-1.798.659-2.709.288.19.551.396.863.575.251.145.515.264.779.357.312.108.646.168.982.192l.035-.42-.035.42a8.1 8.1 0 0 0 .527.022 5.994 5.994 0 0 0 2.985-.756c1.307-.729 2.325-1.918 3.009-3.318a10.768 10.768 0 0 0 1.043-4.699c0-.516-.036-1.02-.107-1.534a6.97 6.97 0 0 0-.996-2.77c-.767-1.211-1.881-2.135-3.199-2.758a10.484 10.484 0 0 0-4.437-.936c-.455 0-.911.024-1.354.072a9.241 9.241 0 0 0-5.262 2.47 8.223 8.223 0 0 0-1.774 2.434 7.759 7.759 0 0 0-.755 3.068c0 .145-.012.288-.012.432-.045.57.002 1.157.122 1.72z"/><path d="M24.97 50c13.809.012 25.007-11.161 25.03-24.971S38.828.023 25.029 0C11.232-.024.012 11.172 0 24.97a24.964 24.964 0 0 0 7.325 17.705A24.882 24.882 0 0 0 24.97 50zm0-47.435c12.418-.014 22.5 10.057 22.512 22.477.013 12.419-10.059 22.5-22.478 22.513-12.419 0-22.501-10.058-22.513-22.478 0-5.97 2.361-11.699 6.593-15.931A22.388 22.388 0 0 1 24.97 2.565z"/></g></svg><svg width="52" height="52" viewBox="-1 -1 52 52" x="104" y="104" xmlns="http://www.w3.org/2000/svg"><g fill="#646464"><path d="M24.97 50c13.81.012 25.006-11.16 25.03-24.971C50.024 11.221 38.828.023 25.03 0S.012 11.172 0 24.971a24.969 24.969 0 0 0 7.325 17.705A24.883 24.883 0 0 0 24.97 50zm0-47.436c12.419-.012 22.5 10.059 22.513 22.478S37.424 47.543 25.005 47.555c-12.419 0-22.5-10.058-22.512-22.477 0-5.971 2.36-11.7 6.593-15.932A22.393 22.393 0 0 1 24.97 2.564z"/><path d="M13.486 32.462a13.524 13.524 0 0 0 7.312 2.146 13.713 13.713 0 0 0 5.814-1.247 13.213 13.213 0 0 0 5.777-5.274 14.065 14.065 0 0 0 1.979-7.062v-.396a9.917 9.917 0 0 0 2.229-2.362.425.425 0 0 0-.526-.623 7.149 7.149 0 0 1-.982.36c.419-.491.73-1.067.923-1.678a.417.417 0 0 0-.274-.527.443.443 0 0 0-.349.036 8.864 8.864 0 0 1-2.59 1.02 5.04 5.04 0 0 0-8.511 4.232 12.663 12.663 0 0 1-8.691-4.64.417.417 0 0 0-.586-.061.473.473 0 0 0-.097.12 5.014 5.014 0 0 0 .419 5.67 4.024 4.024 0 0 1-.516-.239.431.431 0 0 0-.575.166.357.357 0 0 0-.048.192v.072c0 1.702.863 3.296 2.302 4.231l-.181-.035a.417.417 0 0 0-.49.336.383.383 0 0 0 .012.203 5.03 5.03 0 0 0 3.584 3.355 8.852 8.852 0 0 1-5.658 1.224.42.42 0 0 0-.467.371.458.458 0 0 0 .19.41z"/></g></svg><svg width="52" height="52" viewBox="-1 -1 52 52" x="183.09" xmlns="http://www.w3.org/2000/svg"><g fill="#7D7D7D"><path d="M17.322 33.086h15.296a3.674 3.674 0 0 0 3.681-3.68v-8.752a3.682 3.682 0 0 0-3.681-3.68H17.322a3.681 3.681 0 0 0-3.68 3.68v8.752a3.674 3.674 0 0 0 3.68 3.68zm5.886-5.143V21.29l5.047 3.319-5.047 3.334z"/><path d="M24.97 50c13.81.013 25.006-11.16 25.03-24.971C50.024 11.221 38.828.023 25.03 0S.012 11.172 0 24.971a24.969 24.969 0 0 0 7.325 17.705A24.883 24.883 0 0 0 24.97 50zm0-47.436c12.419-.012 22.5 10.059 22.514 22.478.012 12.419-10.059 22.501-22.478 22.513-12.419 0-22.501-10.058-22.513-22.477 0-5.971 2.36-11.7 6.593-15.932A22.393 22.393 0 0 1 24.97 2.564z"/></g></svg><svg width="183.09" height="52" viewBox="19.91 27.33 183.09 52" xmlns="http://www.w3.org/2000/svg"><path fill="#2E332B" d="M45.911 28.333c-13.807 0-25 11.193-25 25 0 13.809 11.193 25 25 25 13.806 0 25.001-11.191 25.001-25 0-13.806-11.195-25-25.001-25zm0 42.553a2.997 2.997 0 1 1 0-5.994 2.997 2.997 0 0 1 0 5.994zm8.671-7.619c-4.269 0-7.825-3.014-8.671-7.027-.845 4.014-4.404 7.027-8.667 7.026-4.895 0-8.864-3.969-8.864-8.86 0-4.85 3.899-8.784 8.729-8.856a8.715 8.715 0 0 1-.107-1.291 8.476 8.476 0 1 1 16.952 0c0 .45-.043.89-.111 1.322.246-.021.488-.038.74-.038a8.86 8.86 0 0 1 8.859 8.863c-.001 4.891-3.967 8.86-8.86 8.861z"/><text transform="translate(78.5 61.98)" fill="#2E332B" font-family="'MyriadPro-Regular'" font-size="23.923">Club Garden</text></svg></svg>