<?xml version="1.0" encoding="utf-8"?><!DOCTYPE svg PUBLIC "-//W3C//DTD SVG 1.1//EN" "http://www.w3.org/Graphics/SVG/1.1/DTD/svg11.dtd"><svg width="306" height="306" viewBox="0 0 306 306" xmlns="http://www.w3.org/2000/svg" xmlns:xlink="http://www.w3.org/1999/xlink"><svg width="102" height="102" viewBox="-26 -26 102 102" id="icon-alert-00" xmlns="http://www.w3.org/2000/svg"><path fill="#C8C8C8" d="M25-25C-2.613-25-25-2.613-25 25s22.387 50 50 50 50-22.387 50-50-22.387-50-50-50zm0 90.5c-5.662 0-10.25-4.59-10.25-10.25S19.338 45 25 45c5.66 0 10.25 4.59 10.25 10.25S30.66 65.5 25 65.5zM37 28c0 6.625-5.375 12-12 12h-1c-6.625 0-12-5.375-12-12V-4c0-6.629 5.375-12.002 12-12.002h1c6.625 0 12 5.373 12 12.002v32z"/></svg><svg width="102" height="102" viewBox="-26 -26 102 102" id="icon-close-00" x="102" xmlns="http://www.w3.org/2000/svg"><path fill="#C8C8C8" d="M25-25C-2.613-25-25-2.613-25 25s22.387 50 50 50c27.617 0 50-22.387 50-50S52.613-25 25-25zm30.641 80.746l-.258.26a5.86 5.86 0 0 1-8.291 0L24.818 33.729 2.543 56.004a5.864 5.864 0 0 1-8.291 0l-.258-.258a5.857 5.857 0 0 1 0-8.289L16.27 25.18-6.002 2.908a5.86 5.86 0 0 1 0-8.291l.258-.258a5.864 5.864 0 0 1 8.291 0L24.82 16.637 47.094-5.641a5.861 5.861 0 0 1 8.289 0l.258.258a5.86 5.86 0 0 1 0 8.291L33.367 25.182l22.277 22.275a5.86 5.86 0 0 1-.003 8.289z"/></svg><svg width="102" height="102" viewBox="-26 -26 102 102" id="icon-menu-00" y="102" xmlns="http://www.w3.org/2000/svg"><path fill="#C8C8C8" d="M25-25C-2.614-25-25-2.614-25 25c0 27.613 22.386 50 50 50 27.613 0 50-22.387 50-50 0-27.614-22.387-50-50-50zm34 72.125A5.873 5.873 0 0 1 53.125 53H-3.124A5.873 5.873 0 0 1-9 47.125v-.25A5.873 5.873 0 0 1-3.124 41h56.249A5.873 5.873 0 0 1 59 46.875v.25zm0-22.001A5.874 5.874 0 0 1 53.125 31H-3.124A5.873 5.873 0 0 1-9 25.124v-.25A5.872 5.872 0 0 1-3.124 19h56.249A5.873 5.873 0 0 1 59 24.876v.248zm0-22A5.873 5.873 0 0 1 53.125 9H-3.124A5.872 5.872 0 0 1-9 3.124v-.25A5.872 5.872 0 0 1-3.124-3h56.249A5.873 5.873 0 0 1 59 2.876v.248z"/></svg><svg width="102" height="102" viewBox="-26 -26 102 102" id="icon-social-facebook-00" x="102" y="102" xmlns="http://www.w3.org/2000/svg"><g fill="#C8C8C8"><path d="M14.918 25.922h3.428v20.74c0 .455.385.84.84.84h8.969a.85.85 0 0 0 .838-.84v-20.74h5.203a.85.85 0 0 0 .84-.744l.793-7.624a.838.838 0 0 0-.744-.914h-6.09V13c0-.24.023-.48.123-.696a.816.816 0 0 1 .5-.458c.145-.046.293-.069.434-.069h4.82c.457 0 .84-.387.84-.843V3.55a.846.846 0 0 0-.84-.836l-6.642-.025a11.11 11.11 0 0 0-4.89 1.005 8.048 8.048 0 0 0-2.47 1.798c-.935 1.006-1.606 2.228-2.014 3.548a11.7 11.7 0 0 0-.528 3.524v4.1H14.9a.848.848 0 0 0-.839.838v7.624a.857.857 0 0 0 .857.796z"/><path d="M24.94 75c27.619.027 50.013-22.32 50.06-49.942C75.047-2.558 52.656-24.954 25.06-25-2.536-25.046-24.976-2.656-25 24.942a49.935 49.935 0 0 0 14.65 35.409A49.763 49.763 0 0 0 24.94 75zm0-94.872C49.777-19.896 69.941.246 69.968 25.084c.023 24.838-20.119 45.002-44.957 45.025-24.838 0-45.002-20.115-45.025-44.953 0-11.942 4.72-23.4 13.186-31.864A44.786 44.786 0 0 1 24.94-19.872z"/></g></svg><svg width="102" height="102" viewBox="-26 -26 102 102" id="icon-social-pinterest-00" x="204" xmlns="http://www.w3.org/2000/svg"><g fill="#C8C8C8"><path d="M7.054 18.372zM7.366 22.708c.168.792.432 1.558.768 2.28a7.416 7.416 0 0 0 2.206 2.734 8.81 8.81 0 0 0 3.548 1.582c.36.07.721-.098.912-.408a7.091 7.091 0 0 0 .67-1.537 4.38 4.38 0 0 0 .216-1.369c0-.528-.119-1.078-.312-1.559-.288-.6-.598-1.199-.958-1.75a5.03 5.03 0 0 1-.648-1.628 10.414 10.414 0 0 1 .888-6.232c1.029-2.062 2.613-3.812 4.602-4.986a12.342 12.342 0 0 1 6.475-1.894c1.27 0 2.541.239 3.74.697a9.747 9.747 0 0 1 3.332 2.227 7.735 7.735 0 0 1 1.703 3.023c.383 1.343.576 2.73.576 4.124 0 1.44-.168 2.876-.529 4.292-.504 2.086-1.389 4.005-2.543 5.347a6.52 6.52 0 0 1-1.891 1.555 4.692 4.692 0 0 1-2.23.549c-.359 0-.695-.045-1.055-.119a3.866 3.866 0 0 1-1.15-.408c-.191-.096-.359-.24-.527-.383a1.864 1.864 0 0 1-.433-.768 4.033 4.033 0 0 1-.144-1.078 9.754 9.754 0 0 1 .36-2.35c.336-1.32.836-2.759 1.269-4.2.213-.716.406-1.438.549-2.13.145-.672.24-1.37.24-2.062 0-.406-.047-.813-.121-1.197-.123-.601-.41-1.152-.793-1.631a4.066 4.066 0 0 0-1.63-1.124 5.282 5.282 0 0 0-1.918-.384c-.886 0-1.774.266-2.519.769-1.079.72-1.894 1.846-2.422 3.12a10.672 10.672 0 0 0-.813 4.147 8.427 8.427 0 0 0 .886 3.906c-.6 2.899-1.486 5.78-2.229 8.798-.769 3.115-1.391 6.424-1.391 10.068 0 1.459.097 2.949.312 4.41.071.457.479.77.958.719a1.14 1.14 0 0 0 .384-.145 12.689 12.689 0 0 0 2.854-2.953c1.175-1.701 2.015-3.668 2.662-5.777a59.8 59.8 0 0 0 1.318-5.418c.576.379 1.102.793 1.726 1.148a9.21 9.21 0 0 0 1.559.715 7.686 7.686 0 0 0 1.963.385l.07-.842-.07.842c.363.023.719.045 1.055.045 2.084.027 4.148-.5 5.969-1.514 2.615-1.459 4.652-3.836 6.02-6.635a21.542 21.542 0 0 0 2.086-9.398c0-1.032-.072-2.041-.215-3.068a13.939 13.939 0 0 0-1.992-5.54c-1.533-2.422-3.762-4.271-6.398-5.517-2.785-1.271-5.801-1.892-8.873-1.871-.909 0-1.821.048-2.708.144A18.49 18.49 0 0 0 12.204 7.4c-1.462 1.39-2.687 3.042-3.548 4.867a15.519 15.519 0 0 0-1.51 6.137c0 .29-.024.576-.024.863-.09 1.141.004 2.315.244 3.441z"/><path d="M24.94 75c27.619.023 50.013-22.322 50.06-49.942S52.656-24.954 25.058-25C-2.536-25.048-24.976-2.656-25 24.939a49.929 49.929 0 0 0 14.65 35.41A49.762 49.762 0 0 0 24.94 75zm0-94.87C49.777-19.898 69.941.244 69.964 25.084c.025 24.838-20.119 45-44.957 45.025-24.838 0-45.002-20.115-45.025-44.955A45.033 45.033 0 0 1-6.832-6.708 44.771 44.771 0 0 1 24.94-19.87z"/></g></svg><svg width="102" height="102" viewBox="-26 -26 102 102" id="icon-social-twitter-00" x="204" y="102" xmlns="http://www.w3.org/2000/svg"><g fill="#C8C8C8"><path d="M24.94 75c27.619.023 50.013-22.32 50.06-49.942C75.047-2.558 52.656-24.954 25.06-25-2.536-25.046-24.976-2.656-25 24.942a49.935 49.935 0 0 0 14.65 35.409A49.763 49.763 0 0 0 24.94 75zm0-94.872C49.777-19.896 69.941.246 69.964 25.084c.027 24.838-20.117 45.002-44.955 45.025-24.838 0-45-20.115-45.023-44.953 0-11.942 4.72-23.4 13.186-31.864A44.786 44.786 0 0 1 24.94-19.872z"/><path d="M1.972 39.924a27.04 27.04 0 0 0 14.624 4.291 27.416 27.416 0 0 0 11.627-2.492 26.403 26.403 0 0 0 11.555-10.549 28.13 28.13 0 0 0 3.959-14.124v-.792a19.86 19.86 0 0 0 4.459-4.724c.262-.382.143-.91-.238-1.172a.828.828 0 0 0-.816-.074c-.645.29-1.293.53-1.963.72a9.664 9.664 0 0 0 1.846-3.355.835.835 0 0 0-.547-1.055.893.893 0 0 0-.699.072c-1.607.958-3.357 1.628-5.18 2.04-4.004-3.884-10.379-3.766-14.266.238-1.822 1.872-2.828 4.388-2.828 7.023 0 .41.024.792.072 1.202A25.323 25.323 0 0 1 6.194 7.895a.835.835 0 0 0-1.172-.123.943.943 0 0 0-.194.24c-2.086 3.597-1.776 8.104.838 11.34a7.914 7.914 0 0 1-1.032-.478.861.861 0 0 0-1.149.332.714.714 0 0 0-.097.384v.145c0 3.403 1.727 6.592 4.604 8.461-.12-.023-.24-.045-.362-.07-.456-.098-.884.213-.979.672a.776.776 0 0 0 .023.406 10.065 10.065 0 0 0 7.168 6.711 17.71 17.71 0 0 1-11.316 2.448c-.456-.047-.885.262-.935.74a.92.92 0 0 0 .381.821z"/></g></svg><svg width="102" height="102" viewBox="-1 -1 102 102" id="icon-social-youtube-00" y="204" xmlns="http://www.w3.org/2000/svg"><g fill="#C8C8C8"><path d="M34.644 66.172h30.593a7.346 7.346 0 0 0 7.361-7.358V41.308a7.362 7.362 0 0 0-7.361-7.359H34.644a7.361 7.361 0 0 0-7.359 7.359v17.505a7.345 7.345 0 0 0 7.359 7.359zm11.772-10.284V42.58l10.094 6.638-10.094 6.67z"/><path d="M49.94 100c27.619.027 50.013-22.32 50.06-49.942C100.047 22.442 77.656.046 50.06 0S.024 22.344 0 49.942a49.938 49.938 0 0 0 14.65 35.41A49.767 49.767 0 0 0 49.94 100zm0-94.872c24.837-.024 45.001 20.118 45.028 44.956.023 24.838-20.118 45.002-44.957 45.025-24.838 0-45.002-20.115-45.025-44.953 0-11.942 4.72-23.4 13.186-31.864A44.786 44.786 0 0 1 49.94 5.128z"/></g></svg><svg width="102" height="102" viewBox="-26 -26.64 102 102" id="icon-unsplash-00" x="102" y="204" xmlns="http://www.w3.org/2000/svg"><path fill="#111" d="M39.986 24.674c0 8.438-6.855 15-14.981 15-8.13 0-15-6.562-15-15 0-8.438 6.87-15 15-15 8.419.311 14.981 6.874 14.981 15zM75.008 1.548v46.573c0 7.178-5.958 13.429-13.458 13.429h-73.118C-19.063 61.55-25 55.611-25 48.121V1.24c0-7.192 5.938-13.442 13.433-13.442H0l2.495-7.188c1.26-3.438 5.318-6.25 9.073-6.25h26.857c3.77 0 7.812 2.812 9.062 6.25l2.52 7.5H61.55c7.5-.001 13.458 5.937 13.458 13.438zM48.132 24.985c0-12.808-10.313-23.438-23.443-23.438-12.817 0-23.438 10.63-23.438 23.438 0 12.813 10.318 23.429 23.438 23.429 13.129-.293 23.443-10.615 23.443-23.429z"/></svg></svg>