<?xml version="1.0" encoding="utf-8"?>
<!-- Generator: Adobe Illustrator 15.0.0, SVG Export Plug-In . SVG Version: 6.00 Build 0)  -->
<!DOCTYPE svg PUBLIC "-//W3C//DTD SVG 1.1//EN" "http://www.w3.org/Graphics/SVG/1.1/DTD/svg11.dtd">
<svg version="1.1" id="Layer_1" xmlns="http://www.w3.org/2000/svg" xmlns:xlink="http://www.w3.org/1999/xlink" x="0px" y="0px"
	 width="100px" height="100px" viewBox="0 0 100 100" enable-background="new 0 0 100 100" xml:space="preserve">
<title></title>
<g id="Layer_2">
	<g id="Layer_1-2">
		<path fill="#C8C8C8" d="M34.644,66.172h30.593c4.076,0,7.361-3.284,7.361-7.358l0,0V41.308c0-4.05-3.285-7.359-7.361-7.359l0,0
			H34.644c-4.052,0-7.359,3.286-7.359,7.359l0,0v17.505C27.286,62.888,30.568,66.172,34.644,66.172L34.644,66.172L34.644,66.172z
			 M46.416,55.888V42.58l10.094,6.638L46.416,55.888z"/>
		<path fill="#C8C8C8" d="M49.94,100c27.619,0.027,50.013-22.32,50.06-49.942C100.047,22.442,77.656,0.046,50.06,0
			S0.024,22.344,0,49.942c-0.024,13.281,5.25,26.011,14.65,35.41C24,94.75,36.708,100,49.94,100z M49.94,5.128
			c24.837-0.024,45.001,20.118,45.028,44.956c0.023,24.838-20.118,45.002-44.957,45.025c-24.838,0-45.002-20.115-45.025-44.953
			c0-11.942,4.72-23.4,13.186-31.864C26.588,9.854,38.024,5.11,49.94,5.128L49.94,5.128z"/>
	</g>
</g>
</svg>
