<?xml version="1.0" encoding="utf-8"?>
<!-- Generator: Adobe Illustrator 15.0.0, SVG Export Plug-In . SVG Version: 6.00 Build 0)  -->
<!DOCTYPE svg PUBLIC "-//W3C//DTD SVG 1.1//EN" "http://www.w3.org/Graphics/SVG/1.1/DTD/svg11.dtd">
<svg version="1.1" id="Layer_1" xmlns="http://www.w3.org/2000/svg" xmlns:xlink="http://www.w3.org/1999/xlink" x="0px" y="0px"
	 width="100px" height="100px" viewBox="-25 -25 100 100" enable-background="new -25 -25 100 100" xml:space="preserve">
<title></title>
<g id="Layer_2">
	<g id="Layer_1-2">
		<path fill="#C8C8C8" d="M7.054,18.372L7.054,18.372L7.054,18.372z"/>
		<path fill="#C8C8C8" d="M7.366,22.708c0.168,0.792,0.432,1.558,0.768,2.28c0.504,1.08,1.271,2.016,2.206,2.734
			c1.054,0.791,2.252,1.316,3.548,1.582c0.36,0.07,0.721-0.098,0.912-0.408c0.288-0.479,0.504-1.006,0.67-1.537
			c0.145-0.434,0.216-0.91,0.216-1.369c0-0.528-0.119-1.078-0.312-1.559c-0.288-0.6-0.598-1.199-0.958-1.75
			c-0.312-0.504-0.528-1.052-0.648-1.628l0,0c-0.096-0.573-0.144-1.149-0.144-1.724c0-1.559,0.36-3.12,1.032-4.508
			c1.029-2.062,2.613-3.812,4.602-4.986c1.942-1.222,4.172-1.872,6.475-1.894c1.27,0,2.541,0.239,3.74,0.697
			c1.246,0.505,2.373,1.246,3.332,2.227c0.791,0.866,1.367,1.894,1.703,3.023c0.383,1.343,0.576,2.73,0.576,4.124
			c0,1.44-0.168,2.876-0.529,4.292c-0.504,2.086-1.389,4.005-2.543,5.347c-0.527,0.625-1.174,1.174-1.891,1.555
			c-0.672,0.363-1.441,0.549-2.23,0.549c-0.359,0-0.695-0.045-1.055-0.119c-0.408-0.072-0.793-0.217-1.15-0.408
			c-0.191-0.096-0.359-0.24-0.527-0.383c-0.192-0.213-0.36-0.479-0.433-0.768c-0.096-0.336-0.144-0.719-0.144-1.078
			c0.024-0.793,0.144-1.584,0.36-2.35c0.336-1.32,0.836-2.759,1.269-4.2c0.213-0.716,0.406-1.438,0.549-2.13
			c0.145-0.672,0.24-1.37,0.24-2.062c0-0.406-0.047-0.813-0.121-1.197c-0.123-0.601-0.41-1.152-0.793-1.631
			c-0.432-0.504-1.006-0.884-1.63-1.124c-0.6-0.239-1.271-0.384-1.918-0.384c-0.886,0-1.774,0.266-2.519,0.769
			c-1.079,0.72-1.894,1.846-2.422,3.12c-0.55,1.317-0.813,2.707-0.813,4.147c-0.024,1.366,0.288,2.708,0.886,3.906
			c-0.6,2.899-1.486,5.78-2.229,8.798c-0.769,3.115-1.391,6.424-1.391,10.068c0,1.459,0.097,2.949,0.312,4.41
			c0.071,0.457,0.479,0.77,0.958,0.719c0.144-0.027,0.264-0.074,0.384-0.145c1.102-0.812,2.062-1.82,2.854-2.953
			c1.175-1.701,2.015-3.668,2.662-5.777c0.528-1.777,0.958-3.598,1.318-5.418c0.576,0.379,1.102,0.793,1.726,1.148
			c0.502,0.291,1.03,0.529,1.559,0.715c0.623,0.217,1.291,0.336,1.963,0.385l0.07-0.842l-0.07,0.842
			c0.363,0.023,0.719,0.045,1.055,0.045c2.084,0.027,4.148-0.5,5.969-1.514c2.615-1.459,4.652-3.836,6.02-6.635
			c1.391-2.927,2.109-6.139,2.086-9.398c0-1.032-0.072-2.041-0.215-3.068l0,0c-0.266-1.964-0.938-3.862-1.992-5.54
			c-1.533-2.422-3.762-4.271-6.398-5.517c-2.785-1.271-5.801-1.892-8.873-1.871c-0.909,0-1.821,0.048-2.708,0.144
			C18.772,2.938,15.08,4.666,12.204,7.4c-1.462,1.39-2.687,3.042-3.548,4.867c-0.912,1.918-1.438,4.004-1.51,6.137
			c0,0.29-0.024,0.576-0.024,0.863C7.032,20.408,7.126,21.582,7.366,22.708z"/>
		<path fill="#C8C8C8" d="M24.94,75C52.559,75.023,74.953,52.678,75,25.058S52.656-24.954,25.058-25
			C-2.536-25.048-24.976-2.656-25,24.939c-0.024,13.283,5.25,26.014,14.65,35.41C-1,69.748,11.706,75,24.94,75z M24.94-19.87
			c24.837-0.028,45.001,20.114,45.024,44.954c0.025,24.838-20.119,45-44.957,45.025c-24.838,0-45.002-20.115-45.025-44.955
			c0-11.94,4.722-23.398,13.186-31.862C1.588-15.146,13.024-19.895,24.94-19.87L24.94-19.87z"/>
	</g>
</g>
</svg>
