<?xml version="1.0" encoding="utf-8"?>
<!-- Generator: Adobe Illustrator 15.0.0, SVG Export Plug-In . SVG Version: 6.00 Build 0)  -->
<!DOCTYPE svg PUBLIC "-//W3C//DTD SVG 1.1//EN" "http://www.w3.org/Graphics/SVG/1.1/DTD/svg11.dtd">
<svg version="1.1" id="Layer_1" xmlns="http://www.w3.org/2000/svg" xmlns:xlink="http://www.w3.org/1999/xlink" x="0px" y="0px"
	 width="100px" height="100px" viewBox="-25 -25 100 100" enable-background="new -25 -25 100 100" xml:space="preserve">
<title></title>
<g id="Layer_2">
	<g id="Layer_1-2">
		<path fill="#C8C8C8" d="M24.94,75C52.559,75.023,74.953,52.68,75,25.058C75.047-2.558,52.656-24.954,25.06-25
			C-2.536-25.046-24.976-2.656-25,24.942c-0.024,13.28,5.25,26.011,14.65,35.409C-1,69.75,11.708,75,24.94,75z M24.94-19.872
			c24.837-0.024,45.001,20.118,45.024,44.956c0.027,24.838-20.117,45.002-44.955,45.025c-24.838,0-45-20.115-45.023-44.953
			c0-11.942,4.72-23.4,13.186-31.864C1.588-15.146,13.024-19.89,24.94-19.872L24.94-19.872z"/>
		<path fill="#C8C8C8" d="M1.972,39.924c4.364,2.807,9.446,4.291,14.624,4.291C20.6,44.24,24.58,43.4,28.223,41.723
			c4.82-2.254,8.85-5.945,11.555-10.549c2.543-4.268,3.908-9.134,3.959-14.124c0-0.262,0-0.528,0-0.792
			c1.725-1.318,3.236-2.899,4.459-4.724c0.262-0.382,0.143-0.91-0.238-1.172c-0.238-0.168-0.551-0.194-0.816-0.074
			c-0.645,0.29-1.293,0.53-1.963,0.72c0.838-0.981,1.459-2.134,1.846-3.355c0.145-0.433-0.096-0.912-0.547-1.055
			c-0.24-0.071-0.48-0.048-0.699,0.072c-1.607,0.958-3.357,1.628-5.18,2.04c-4.004-3.884-10.379-3.766-14.266,0.238
			c-1.822,1.872-2.828,4.388-2.828,7.023c0,0.41,0.024,0.792,0.072,1.202C16.768,16.55,10.51,13.218,6.194,7.895
			c-0.288-0.36-0.812-0.408-1.172-0.123c-0.074,0.072-0.145,0.145-0.194,0.24c-2.086,3.597-1.776,8.104,0.838,11.34
			c-0.36-0.142-0.696-0.287-1.032-0.478c-0.406-0.216-0.91-0.074-1.149,0.332c-0.072,0.122-0.097,0.242-0.097,0.384
			c0,0.072,0,0.096,0,0.145c0,3.403,1.727,6.592,4.604,8.461c-0.12-0.023-0.24-0.045-0.362-0.07
			c-0.456-0.098-0.884,0.213-0.979,0.672c-0.024,0.141-0.024,0.289,0.023,0.406c1.057,3.332,3.79,5.877,7.168,6.711
			C10.44,37.977,6.46,38.84,2.526,38.363c-0.456-0.047-0.885,0.262-0.935,0.74C1.564,39.422,1.708,39.732,1.972,39.924L1.972,39.924
			z"/>
	</g>
</g>
</svg>
