<?xml version="1.0" encoding="utf-8"?>
<!-- Generator: Adobe Illustrator 15.0.0, SVG Export Plug-In . SVG Version: 6.00 Build 0)  -->
<!DOCTYPE svg PUBLIC "-//W3C//DTD SVG 1.1//EN" "http://www.w3.org/Graphics/SVG/1.1/DTD/svg11.dtd">
<svg version="1.1" id="Layer_1" xmlns="http://www.w3.org/2000/svg" xmlns:xlink="http://www.w3.org/1999/xlink" x="0px" y="0px"
	 width="100px" height="100px" viewBox="-25 -25.641 100 100" enable-background="new -25 -25.641 100 100" xml:space="preserve">
<path fill="#111111" d="M39.986,24.674c0,8.438-6.855,15-14.981,15c-8.13,0-15-6.562-15-15c0-8.438,6.87-15,15-15
	C33.424,9.985,39.986,16.548,39.986,24.674z M75.008,1.548v46.573c0,7.178-5.958,13.429-13.458,13.429h-73.118
	C-19.063,61.55-25,55.611-25,48.121V1.24c0-7.192,5.938-13.442,13.433-13.442H0l2.495-7.188c1.26-3.438,5.318-6.25,9.073-6.25
	h26.857c3.77,0,7.812,2.812,9.062,6.25l2.52,7.5H61.55C69.05-11.891,75.008-5.953,75.008,1.548z M48.132,24.985
	c0-12.808-10.313-23.438-23.443-23.438c-12.817,0-23.438,10.63-23.438,23.438c0,12.813,10.318,23.429,23.438,23.429
	C37.818,48.121,48.132,37.799,48.132,24.985z"/>
</svg>
