<?xml version="1.0" encoding="utf-8"?>
<!-- Generator: Adobe Illustrator 15.0.0, SVG Export Plug-In . SVG Version: 6.00 Build 0)  -->
<!DOCTYPE svg PUBLIC "-//W3C//DTD SVG 1.1//EN" "http://www.w3.org/Graphics/SVG/1.1/DTD/svg11.dtd">
<svg version="1.1" id="Layer_1" xmlns="http://www.w3.org/2000/svg" xmlns:xlink="http://www.w3.org/1999/xlink" x="0px" y="0px"
	 width="100px" height="100px" viewBox="-25 -25 100 100" enable-background="new -25 -25 100 100" xml:space="preserve">
<path fill="#C8C8C8" d="M25-25C-2.613-25-25-2.613-25,25s22.387,50,50,50c27.617,0,50-22.387,50-50S52.613-25,25-25z M55.641,55.746
	l-0.258,0.26c-2.291,2.291-6,2.291-8.291,0L24.818,33.729L2.543,56.004c-2.291,2.289-6,2.289-8.291,0l-0.258-0.258
	c-2.291-2.289-2.291-6,0-8.289L16.27,25.18L-6.002,2.908c-2.291-2.291-2.291-6,0-8.291l0.258-0.258c2.291-2.289,6-2.289,8.291,0
	L24.82,16.637L47.094-5.641c2.289-2.289,6-2.289,8.289,0l0.258,0.258c2.291,2.291,2.291,6,0,8.291L33.367,25.182l22.277,22.275
	C57.932,49.746,57.932,53.457,55.641,55.746z"/>
</svg>
