<?xml version="1.0" encoding="utf-8"?>
<!-- Generator: Adobe Illustrator 15.0.0, SVG Export Plug-In . SVG Version: 6.00 Build 0)  -->
<!DOCTYPE svg PUBLIC "-//W3C//DTD SVG 1.1//EN" "http://www.w3.org/Graphics/SVG/1.1/DTD/svg11.dtd">
<svg version="1.1" id="Layer_1" xmlns="http://www.w3.org/2000/svg" xmlns:xlink="http://www.w3.org/1999/xlink" x="0px" y="0px"
	 width="100px" height="100px" viewBox="-25 -25 100 100" enable-background="new -25 -25 100 100" xml:space="preserve">
<path fill="#C8C8C8" d="M25-25C-2.613-25-25-2.613-25,25s22.387,50,50,50s50-22.387,50-50S52.613-25,25-25z M25,65.5
	c-5.662,0-10.25-4.59-10.25-10.25S19.338,45,25,45c5.66,0,10.25,4.59,10.25,10.25S30.66,65.5,25,65.5z M37,28
	c0,6.625-5.375,12-12,12h-1c-6.625,0-12-5.375-12-12V-4c0-6.629,5.375-12.002,12-12.002h1c6.625,0,12,5.373,12,12.002V28z"/>
</svg>
