<?xml version="1.0" encoding="utf-8"?>
<!-- Generator: Adobe Illustrator 15.0.0, SVG Export Plug-In . SVG Version: 6.00 Build 0)  -->
<!DOCTYPE svg PUBLIC "-//W3C//DTD SVG 1.1//EN" "http://www.w3.org/Graphics/SVG/1.1/DTD/svg11.dtd">
<svg version="1.1" id="Layer_1" xmlns="http://www.w3.org/2000/svg" xmlns:xlink="http://www.w3.org/1999/xlink" x="0px" y="0px"
	 width="100px" height="100px" viewBox="-25 -25 100 100" enable-background="new -25 -25 100 100" xml:space="preserve">
<title></title>
<g id="Layer_2">
	<g id="Layer_1-2">
		<path fill="#C8C8C8" d="M14.918,25.922h3.428v20.74c0,0.455,0.385,0.84,0.84,0.84h8.969c0.455,0,0.838-0.385,0.838-0.84v-20.74
			h5.203c0.434,0,0.793-0.334,0.84-0.744l0.793-7.624c0.047-0.458-0.289-0.863-0.744-0.914c-0.025,0-0.045,0-0.096,0h-5.994V13
			c0-0.24,0.023-0.48,0.123-0.696c0.098-0.216,0.266-0.384,0.5-0.458c0.145-0.046,0.293-0.069,0.434-0.069h4.82
			c0.457,0,0.84-0.387,0.84-0.843V3.55c0-0.456-0.383-0.836-0.84-0.836L28.23,2.689l0,0C26.551,2.64,24.872,3,23.34,3.694
			c-0.934,0.434-1.773,1.054-2.47,1.798c-0.935,1.006-1.606,2.228-2.014,3.548c-0.36,1.147-0.528,2.324-0.528,3.524v4.1H14.9
			c-0.458,0-0.839,0.384-0.839,0.838v7.624C14.08,25.54,14.442,25.922,14.918,25.922L14.918,25.922z"/>
		<path fill="#C8C8C8" d="M24.94,75C52.559,75.027,74.953,52.68,75,25.058C75.047-2.558,52.656-24.954,25.06-25
			C-2.536-25.046-24.976-2.656-25,24.942c-0.024,13.28,5.25,26.011,14.65,35.409C-1,69.75,11.708,75,24.94,75z M24.94-19.872
			c24.837-0.024,45.001,20.118,45.028,44.956c0.023,24.838-20.119,45.002-44.957,45.025c-24.838,0-45.002-20.115-45.025-44.953
			c0-11.942,4.72-23.4,13.186-31.864C1.588-15.146,13.024-19.89,24.94-19.872L24.94-19.872z"/>
	</g>
</g>
</svg>
